<svg width="52" height="52" viewBox="0 0 52 52" fill="none" xmlns="http://www.w3.org/2000/svg">
<g filter="url(#filter0_bdi_21_58)">
<path d="M19.1741 3.59363C22.2409 -1.19788 29.7982 -1.19788 32.8649 3.59363L32.9762 3.76765C34.3913 5.97813 36.9703 7.34316 39.7661 7.36111L39.9864 7.36252C46.0466 7.40142 49.8252 13.4007 46.8317 18.2311L46.723 18.4065C45.342 20.635 45.342 23.3651 46.723 25.5935L46.8317 25.7688C49.8252 30.5994 46.0466 36.5985 39.9864 36.6375L39.7661 36.6388C36.9703 36.6568 34.3913 38.0219 32.9762 40.2323L32.8649 40.4063C29.7982 45.1979 22.2409 45.1979 19.1741 40.4063L19.0627 40.2323C17.6478 38.0219 15.0686 36.6568 12.2728 36.6388L12.0527 36.6375C5.99247 36.5985 2.2139 30.5994 5.20726 25.7688L5.31598 25.5935C6.69691 23.3651 6.69691 20.635 5.31598 18.4065L5.20726 18.2311C2.2139 13.4007 5.99247 7.40142 12.0527 7.36252L12.2728 7.36111C15.0686 7.34316 17.6478 5.97813 19.0627 3.76765L19.1741 3.59363Z" fill="url(#paint0_linear_21_58)"/>
</g>
<defs>
<filter id="filter0_bdi_21_58" x="-2" y="-4" width="56" height="56" filterUnits="userSpaceOnUse" color-interpolation-filters="sRGB">
<feFlood flood-opacity="0" result="BackgroundImageFix"/>
<feGaussianBlur in="BackgroundImageFix" stdDeviation="2"/>
<feComposite in2="SourceAlpha" operator="in" result="effect1_backgroundBlur_21_58"/>
<feColorMatrix in="SourceAlpha" type="matrix" values="0 0 0 0 0 0 0 0 0 0 0 0 0 0 0 0 0 0 127 0" result="hardAlpha"/>
<feOffset dy="4"/>
<feGaussianBlur stdDeviation="2"/>
<feComposite in2="hardAlpha" operator="out"/>
<feColorMatrix type="matrix" values="0 0 0 0 0 0 0 0 0 0 0 0 0 0 0 0 0 0 0.25 0"/>
<feBlend mode="normal" in2="effect1_backgroundBlur_21_58" result="effect2_dropShadow_21_58"/>
<feBlend mode="normal" in="SourceGraphic" in2="effect2_dropShadow_21_58" result="shape"/>
<feColorMatrix in="SourceAlpha" type="matrix" values="0 0 0 0 0 0 0 0 0 0 0 0 0 0 0 0 0 0 127 0" result="hardAlpha"/>
<feOffset dy="4"/>
<feGaussianBlur stdDeviation="2"/>
<feComposite in2="hardAlpha" operator="arithmetic" k2="-1" k3="1"/>
<feColorMatrix type="matrix" values="0 0 0 0 0 0 0 0 0 0 0 0 0 0 0 0 0 0 0.25 0"/>
<feBlend mode="normal" in2="shape" result="effect3_innerShadow_21_58"/>
</filter>
<linearGradient id="paint0_linear_21_58" x1="26.0195" y1="0" x2="26.0195" y2="44" gradientUnits="userSpaceOnUse">
<stop/>
<stop offset="0.49" stop-color="#690BA2"/>
<stop offset="1" stop-color="#E4C1F9"/>
</linearGradient>
</defs>
</svg>
